<svg xmlns="http://www.w3.org/2000/svg" xmlns:xlink="http://www.w3.org/1999/xlink" width="500" zoomAndPan="magnify" viewBox="0 0 375 374.999991" height="500" preserveAspectRatio="xMidYMid meet" version="1.0"><defs><clipPath id="b592a4a1db"><path d="M 125 45.214844 L 375 45.214844 L 375 187.5 L 125 187.5 Z M 125 45.214844 " clip-rule="nonzero"/></clipPath><clipPath id="029954e425"><path d="M 171.875 45.214844 L 328.125 45.214844 C 340.558594 45.214844 352.480469 50.152344 361.269531 58.941406 C 370.0625 67.734375 375 79.65625 375 92.089844 L 375 140.625 C 375 153.058594 370.0625 164.980469 361.269531 173.769531 C 352.480469 182.5625 340.558594 187.5 328.125 187.5 L 171.875 187.5 C 159.441406 187.5 147.519531 182.5625 138.730469 173.769531 C 129.9375 164.980469 125 153.058594 125 140.625 L 125 92.089844 C 125 79.65625 129.9375 67.734375 138.730469 58.941406 C 147.519531 50.152344 159.441406 45.214844 171.875 45.214844 Z M 171.875 45.214844 " clip-rule="nonzero"/></clipPath><clipPath id="13ece070b0"><path d="M 61.765625 116.355469 L 311.878906 116.355469 L 311.878906 258.644531 L 61.765625 258.644531 Z M 61.765625 116.355469 " clip-rule="nonzero"/></clipPath><clipPath id="6c7d1ef2d1"><path d="M 108.640625 116.355469 L 264.890625 116.355469 C 277.324219 116.355469 289.246094 121.296875 298.039062 130.085938 C 306.828125 138.875 311.765625 150.800781 311.765625 163.230469 L 311.765625 211.769531 C 311.765625 224.199219 306.828125 236.125 298.039062 244.914062 C 289.246094 253.703125 277.324219 258.644531 264.890625 258.644531 L 108.640625 258.644531 C 96.210938 258.644531 84.289062 253.703125 75.496094 244.914062 C 66.707031 236.125 61.765625 224.199219 61.765625 211.769531 L 61.765625 163.230469 C 61.765625 150.800781 66.707031 138.875 75.496094 130.085938 C 84.289062 121.296875 96.210938 116.355469 108.640625 116.355469 Z M 108.640625 116.355469 " clip-rule="nonzero"/></clipPath><clipPath id="4d259dd1ec"><path d="M 0 187.5 L 250 187.5 L 250 329.785156 L 0 329.785156 Z M 0 187.5 " clip-rule="nonzero"/></clipPath><clipPath id="5eb6897c0d"><path d="M 46.875 187.5 L 203.125 187.5 C 215.558594 187.5 227.480469 192.4375 236.269531 201.230469 C 245.0625 210.019531 250 221.941406 250 234.375 L 250 282.910156 C 250 295.34375 245.0625 307.265625 236.269531 316.058594 C 227.480469 324.847656 215.558594 329.785156 203.125 329.785156 L 46.875 329.785156 C 34.441406 329.785156 22.519531 324.847656 13.730469 316.058594 C 4.9375 307.265625 0 295.34375 0 282.910156 L 0 234.375 C 0 221.941406 4.9375 210.019531 13.730469 201.230469 C 22.519531 192.4375 34.441406 187.5 46.875 187.5 Z M 46.875 187.5 " clip-rule="nonzero"/></clipPath></defs><g clip-path="url(#b592a4a1db)"><g clip-path="url(#029954e425)"><path fill="#078dee" d="M 125 45.214844 L 375.113281 45.214844 L 375.113281 187.5 L 125 187.5 Z M 125 45.214844 " fill-opacity="1" fill-rule="nonzero"/></g></g><g clip-path="url(#13ece070b0)"><g clip-path="url(#6c7d1ef2d1)"><path fill="#00aa73" d="M 61.765625 116.355469 L 311.878906 116.355469 L 311.878906 258.644531 L 61.765625 258.644531 Z M 61.765625 116.355469 " fill-opacity="1" fill-rule="nonzero"/></g></g><g clip-path="url(#4d259dd1ec)"><g clip-path="url(#5eb6897c0d)"><path fill="#ff4f4f" d="M 0 187.5 L 250.113281 187.5 L 250.113281 329.785156 L 0 329.785156 Z M 0 187.5 " fill-opacity="1" fill-rule="nonzero"/></g></g></svg>